<svg xmlns="http://www.w3.org/2000/svg" viewBox="0 0 800 800" role="img" aria-labelledby="title"><title id="title">LEONES · dos leones</title><defs><linearGradient id="b" x1="0" x2="1"><stop stop-color="#12304a"/><stop offset="1" stop-color="#1769aa"/></linearGradient></defs><rect width="800" height="800" rx="90" fill="#f3f6f9"/><g transform="translate(150 80)"><path d="M60 210C25 150 65 75 125 92C160 35 240 35 275 92C335 75 375 150 340 210C380 260 360 350 305 380C275 445 105 445 75 380C20 350 0 260 60 210Z" fill="#1769aa"/><path d="M105 205C105 135 295 135 295 205L278 330C250 370 150 370 122 330Z" fill="#f3f6f9" stroke="#12304a" stroke-width="11"/><circle cx="165" cy="240" r="14" fill="#12304a"/><circle cx="235" cy="240" r="14" fill="#12304a"/><path d="M166 285Q200 310 234 285" fill="none" stroke="#12304a" stroke-width="11" stroke-linecap="round"/><g fill="none" stroke="#f0c85a" stroke-width="13" stroke-linecap="round"><path d="M65 175C20 140 25 90 68 75C104 63 126 91 107 118C90 142 58 126 58 100"/><path d="M335 175C380 140 375 90 332 75"/><path d="M82 348C35 370 38 415 80 430"/><path d="M318 348C365 370 362 415 320 430"/></g><path d="M69 166A55 55 0 1 1 86 112" fill="none" stroke="#f0c85a" stroke-width="12" stroke-linecap="round"/><path d="M86 112l-3 31 27-13" fill="#f0c85a"/></g><g transform="translate(415 95)"><path d="M35 225C0 180 30 120 82 112C110 72 185 78 213 125C265 135 285 190 254 226C268 295 215 340 155 345C92 350 48 310 42 267C18 255 17 237 35 225Z" fill="#607d8b"/><path d="M88 165C118 125 184 136 200 178C210 195 225 204 265 212C235 234 210 235 190 230L178 288C145 315 103 295 90 260C80 235 78 190 88 165Z" fill="#f3f6f9" stroke="#12304a" stroke-width="10"/><circle cx="170" cy="188" r="8" fill="#12304a"/><path d="M199 220l30 8" stroke="#12304a" stroke-width="8" stroke-linecap="round"/></g><g transform="translate(210 550)"><rect width="380" height="92" rx="15" fill="url(#b)"/><rect x="30" y="22" width="320" height="48" rx="8" fill="#172b3d"/><rect x="135" y="31" width="110" height="30" rx="5" fill="#eaf4fb"/><text x="190" y="53" text-anchor="middle" font-family="Arial" font-size="17" font-weight="800" fill="#12304a">AI</text></g><text x="400" y="700" text-anchor="middle" font-family="Arial,sans-serif" font-size="58" font-weight="900" letter-spacing="8" fill="#12304a">LEONES</text><text x="400" y="730" text-anchor="middle" font-family="Arial,sans-serif" font-size="15" letter-spacing="2" fill="#607d8b">LOCAL ECOSYSTEM OF OPEN NEURAL EXPERT SYSTEMS</text></svg>